<svg width="1600" height="1040" viewBox="0 0 1600 1040" fill="none" xmlns="http://www.w3.org/2000/svg" role="img" aria-labelledby="archTitle archDesc">
  <title id="archTitle">ClarosDPP application architecture</title>
  <desc id="archDesc">Simplified architecture diagram for ClarosDPP with spacious routing gutters and short labels that stay inside the containers.</desc>
  <defs>
    <style><![CDATA[
      .bg { fill: #f5fbff; }
      .frame { fill: #fbfeff; stroke: #d6e5ef; stroke-width: 2; }
      .zone { fill: #ffffff; stroke: #bfd5e4; stroke-width: 2; }
      .group { fill: #f7fbfe; stroke: #cfe0eb; stroke-width: 2; }
      .box { fill: #ffffff; stroke: #9fbfd5; stroke-width: 2; }
      .box-dark { fill: #10243a; stroke: #456c88; stroke-width: 2; }
      .db { fill: #ffffff; stroke: #9fbfd5; stroke-width: 2; }
      .line { fill: none; stroke: #6f93b1; stroke-width: 3; stroke-linecap: round; stroke-linejoin: round; marker-end: url(#arrow); }
      .line-soft { fill: none; stroke: #8faec4; stroke-width: 2.5; stroke-linecap: round; stroke-linejoin: round; marker-end: url(#arrowSoft); }
      .teal { fill: #0db5b0; }
      .navy { fill: #10243a; }
      .muted { fill: #5f7991; }
      .white { fill: #eef7fb; }
      .eyebrow {
        font-family: 'DM Sans', Arial, sans-serif;
        font-size: 17px;
        font-weight: 800;
        letter-spacing: 2.8px;
      }
      .title {
        font-family: 'DM Sans', Arial, sans-serif;
        font-size: 24px;
        font-weight: 800;
      }
      .section {
        font-family: 'DM Sans', Arial, sans-serif;
        font-size: 16px;
        font-weight: 800;
        letter-spacing: 1.8px;
      }
      .tech {
        font-family: 'DM Sans', Arial, sans-serif;
        font-size: 11px;
        font-weight: 800;
        letter-spacing: 1.5px;
      }
      .name {
        font-family: 'DM Sans', Arial, sans-serif;
        font-size: 18px;
        font-weight: 800;
      }
      .body {
        font-family: 'DM Sans', Arial, sans-serif;
        font-size: 12px;
        font-weight: 500;
      }
    ]]></style>
    <filter id="shadow" x="-60" y="-60" width="1720" height="1160" filterUnits="userSpaceOnUse" color-interpolation-filters="sRGB">
      <feFlood flood-opacity="0" result="BackgroundImageFix"/>
      <feColorMatrix in="SourceAlpha" type="matrix" values="0 0 0 0 0 0 0 0 0 0 0 0 0 0 0 0 0 0 127 0" result="hardAlpha"/>
      <feOffset dy="14"/>
      <feGaussianBlur stdDeviation="18"/>
      <feColorMatrix type="matrix" values="0 0 0 0 0.0627451 0 0 0 0 0.141176 0 0 0 0 0.227451 0 0 0 0.11 0"/>
      <feBlend mode="normal" in2="BackgroundImageFix" result="effect1_dropShadow_1_1"/>
      <feBlend mode="normal" in="SourceGraphic" in2="effect1_dropShadow_1_1" result="shape"/>
    </filter>
    <marker id="arrow" viewBox="0 0 10 10" refX="8.2" refY="5" markerWidth="7" markerHeight="7" orient="auto">
      <path d="M1.5 1.7L8.2 5L1.5 8.3" fill="none" stroke="#6f93b1" stroke-width="1.8" stroke-linecap="round" stroke-linejoin="round"/>
    </marker>
    <marker id="arrowSoft" viewBox="0 0 10 10" refX="8.2" refY="5" markerWidth="7" markerHeight="7" orient="auto">
      <path d="M1.5 1.7L8.2 5L1.5 8.3" fill="none" stroke="#8faec4" stroke-width="1.8" stroke-linecap="round" stroke-linejoin="round"/>
    </marker>
  </defs>

  <rect x="18" y="18" width="1564" height="1004" rx="28" class="bg"/>
  <g filter="url(#shadow)">
    <rect x="46" y="46" width="1508" height="948" rx="24" class="frame"/>
  </g>

  <text x="82" y="98" class="eyebrow teal">CLAROSDPP APPLICATION BLUEPRINT</text>
  <text x="82" y="134" class="title navy">Application architecture</text>
  <text x="82" y="160" class="body muted">Simplified layout with shorter labels and open routing space.</text>

  <g filter="url(#shadow)">
    <rect x="80" y="210" width="260" height="700" rx="22" class="zone"/>
    <text x="108" y="252" class="section teal">ACTORS AND INPUTS</text>
    <path d="M106 266H314" stroke="#d9e7f0" stroke-width="2"/>

    <rect x="104" y="310" width="212" height="94" rx="16" class="box"/>
    <text x="128" y="336" class="tech navy">BUSINESS USERS</text>
    <text x="128" y="365" class="name navy">Company operations</text>
    <text x="128" y="388" class="body muted">Editors, reviewers, and admins.</text>

    <rect x="104" y="454" width="212" height="94" rx="16" class="box"/>
    <text x="128" y="480" class="tech navy">PLATFORM CONTROL</text>
    <text x="128" y="509" class="name navy">Platform admins</text>
    <text x="128" y="532" class="body muted">Setup, access, and governance.</text>

    <rect x="104" y="598" width="212" height="94" rx="16" class="box"/>
    <text x="128" y="624" class="tech navy">SYSTEM FEEDS</text>
    <text x="128" y="653" class="name navy">Source systems</text>
    <text x="128" y="676" class="body muted">ERP, PLM, CSV, JSON, assets.</text>

    <rect x="104" y="742" width="212" height="94" rx="16" class="box"/>
    <text x="128" y="768" class="tech navy">PUBLIC ACCESS</text>
    <text x="128" y="797" class="name navy">Public scanners</text>
    <text x="128" y="820" class="body muted">QR scan entry into the app.</text>
  </g>

  <g filter="url(#shadow)">
    <rect x="400" y="170" width="860" height="760" rx="24" class="zone"/>
    <text x="432" y="212" class="section navy">CLAROSDPP PLATFORM</text>
    <path d="M430 226H1230" stroke="#d9e7f0" stroke-width="2"/>

    <rect x="450" y="250" width="760" height="160" rx="20" class="group"/>
    <text x="480" y="288" class="section teal">INTERFACE LAYER</text>
    <path d="M478 302H1190" stroke="#dce9f1" stroke-width="2"/>

    <rect x="500" y="328" width="190" height="64" rx="14" class="box"/>
    <text x="522" y="350" class="tech navy">REACT + VITE</text>
    <text x="522" y="376" class="name navy">Admin workspace</text>

    <rect x="735" y="328" width="190" height="64" rx="14" class="box"/>
    <text x="757" y="350" class="tech navy">REACT ROUTER</text>
    <text x="757" y="376" class="name navy">Public passport app</text>

    <rect x="970" y="328" width="190" height="64" rx="14" class="box"/>
    <text x="992" y="350" class="tech navy">HTML + JS</text>
    <text x="992" y="376" class="name navy">Asset management</text>

    <rect x="450" y="470" width="760" height="220" rx="20" class="group"/>
    <text x="480" y="508" class="section teal">APPLICATION SERVICES</text>
    <path d="M478 522H1190" stroke="#dce9f1" stroke-width="2"/>

    <rect x="500" y="570" width="190" height="110" rx="16" class="box-dark"/>
    <text x="522" y="596" class="tech teal">EXPRESS API</text>
    <text x="522" y="628" class="name white">Core DPP API</text>
    <text x="522" y="652" class="body white">CRUD, templates, profiles, access.</text>

    <rect x="735" y="570" width="190" height="110" rx="16" class="box-dark"/>
    <text x="757" y="596" class="tech teal">WORKFLOW + CONNECTORS</text>
    <text x="757" y="628" class="name white">Workflow engine</text>
    <text x="757" y="652" class="body white">Review, release, imports, upserts.</text>

    <rect x="970" y="570" width="190" height="110" rx="16" class="box-dark"/>
    <text x="992" y="596" class="tech teal">PUBLIC + TRUST</text>
    <text x="992" y="628" class="name white">Delivery and trust</text>
    <text x="992" y="652" class="body white">QR, signatures, DID, public reads.</text>

    <rect x="450" y="750" width="760" height="130" rx="20" class="group"/>
    <text x="480" y="788" class="section teal">DATA FOUNDATIONS</text>
    <path d="M478 802H1190" stroke="#dce9f1" stroke-width="2"/>

    <g>
      <ellipse cx="595" cy="846" rx="96" ry="16" class="db"/>
      <path d="M499 846V882C499 891.94 541.98 900 595 900C648.02 900 691 891.94 691 882V846" class="db"/>
      <ellipse cx="595" cy="882" rx="96" ry="16" class="db"/>
      <text x="548" y="842" class="tech navy">POSTGRESQL</text>
      <text x="532" y="870" class="name navy">Operational records</text>
    </g>

    <rect x="735" y="828" width="190" height="58" rx="14" class="db"/>
    <text x="757" y="850" class="tech navy">AUDIT + HISTORY</text>
    <text x="757" y="874" class="name navy">Traceability records</text>

    <rect x="970" y="828" width="190" height="58" rx="14" class="db"/>
    <text x="992" y="850" class="tech navy">FILE STORAGE</text>
    <text x="992" y="874" class="name navy">Repository and uploads</text>
  </g>

  <g filter="url(#shadow)">
    <rect x="1320" y="210" width="200" height="560" rx="22" class="zone"/>
    <text x="1348" y="252" class="section teal">OUTPUTS</text>
    <path d="M1346 266H1494" stroke="#d9e7f0" stroke-width="2"/>

    <rect x="1344" y="310" width="152" height="94" rx="16" class="box"/>
    <text x="1364" y="336" class="tech navy">PUBLIC JOURNEY</text>
    <text x="1364" y="365" class="name navy">Customer scans</text>
    <text x="1364" y="388" class="body muted">Public landing and viewer.</text>

    <rect x="1344" y="454" width="152" height="94" rx="16" class="box"/>
    <text x="1364" y="480" class="tech navy">INTERNAL CONTROL</text>
    <text x="1364" y="509" class="name navy">Operations use</text>
    <text x="1364" y="532" class="body muted">Review and analytics.</text>

    <rect x="1344" y="598" width="152" height="94" rx="16" class="box"/>
    <text x="1364" y="624" class="tech navy">TRUST OUTPUTS</text>
    <text x="1364" y="653" class="name navy">Shared artifacts</text>
    <text x="1364" y="676" class="body muted">AAS, DID, signatures.</text>
  </g>

  <g>
    <path d="M316 357H410V300H595V328" class="line-soft"/>
    <path d="M316 501H430V300H595V328" class="line-soft"/>
    <path d="M316 645H430V548H595V570" class="line"/>
    <path d="M316 789H430V300H830V328" class="line"/>

    <path d="M595 392V520V570" class="line"/>
    <path d="M830 392V520V570" class="line"/>
    <path d="M1065 392V520V570" class="line"/>

    <path d="M690 668H735" class="line"/>
    <path d="M925 668H970" class="line"/>

    <path d="M595 680V754V830" class="line"/>
    <path d="M830 680V754V828" class="line"/>
    <path d="M1065 680V754V828" class="line"/>

    <path d="M1160 625H1288V288H1420V310" class="line"/>
    <path d="M690 668V724H1288V432H1420V454" class="line-soft"/>
    <path d="M1160 625H1288V576H1420V598" class="line"/>
  </g>
</svg>
