<svg width="220" height="120" viewBox="0 0 220 120" fill="none" xmlns="http://www.w3.org/2000/svg" role="img" aria-labelledby="logoTitle">
  <title id="logoTitle">Abstract sample brand logo</title>
  <defs>
    <linearGradient id="sampleGradientA" x1="34" y1="20" x2="112" y2="102" gradientUnits="userSpaceOnUse">
      <stop stop-color="#0DB5B0"/>
      <stop offset="1" stop-color="#0B79A5"/>
    </linearGradient>
    <linearGradient id="sampleGradientB" x1="88" y1="30" x2="154" y2="96" gradientUnits="userSpaceOnUse">
      <stop stop-color="#F0A500"/>
      <stop offset="1" stop-color="#F4C654"/>
    </linearGradient>
  </defs>
  <rect x="18" y="12" width="104" height="96" rx="28" fill="#F3FAFE"/>
  <rect x="18" y="12" width="104" height="96" rx="28" stroke="#D5E7F1"/>
  <path d="M46 70C46 51.2223 61.2223 36 80 36V36C98.7777 36 114 51.2223 114 70V70C114 88.7777 98.7777 104 80 104V104C61.2223 104 46 88.7777 46 70V70Z" fill="url(#sampleGradientA)"/>
  <path d="M65 53H94C99.5228 53 104 57.4772 104 63V63C104 68.5228 99.5228 73 94 73H65V53Z" fill="#F7FCFF"/>
  <path d="M56 72H86C91.5228 72 96 76.4772 96 82V82C96 87.5228 91.5228 92 86 92H56V72Z" fill="#D8F7F5"/>
  <circle cx="103" cy="45" r="8" fill="url(#sampleGradientB)"/>
  <path d="M150 38C159.475 38 168.563 41.7643 175.263 48.4645C181.964 55.1647 185.728 64.2522 185.728 73.7279V78.4H174.336V73.7279C174.336 67.2732 171.772 61.0829 167.208 56.5193C162.645 51.9557 156.454 49.3918 150 49.3918V38Z" fill="#10243A" fill-opacity="0.16"/>
  <path d="M150 54.8C155.02 54.8 159.835 56.7943 163.385 60.3448C166.936 63.8953 168.93 68.71 168.93 73.73V78.4H157.538V73.73C157.538 71.7315 156.744 69.8148 155.331 68.4017C153.918 66.9886 152.001 66.1948 150.003 66.1948L150 54.8Z" fill="#0DB5B0"/>
  <path d="M150 71.6C150.564 71.6 151.122 71.7111 151.642 71.927C152.163 72.1428 152.636 72.4591 153.035 72.858C153.434 73.2569 153.75 73.7304 153.966 74.2516C154.182 74.7728 154.293 75.3314 154.293 75.8954C154.293 76.4595 154.182 77.0181 153.966 77.5393C153.75 78.0605 153.434 78.5339 153.035 78.9328C152.636 79.3317 152.163 79.648 151.642 79.8638C151.122 80.0797 150.564 80.1908 150 80.1908C148.861 80.1908 147.769 79.738 146.964 78.9321C146.158 78.1263 145.705 77.0335 145.705 75.8941C145.705 74.7548 146.158 73.662 146.964 72.8561C147.769 72.0502 148.861 71.5974 150 71.5974V71.6Z" fill="#F0A500"/>
</svg>
